<?xml version="1.0" encoding="UTF-8" standalone="no"?>
<!DOCTYPE svg PUBLIC "-//W3C//DTD SVG 1.1//EN" "http://www.w3.org/Graphics/SVG/1.1/DTD/svg11.dtd">
<!-- Created with Vectornator (http://vectornator.io/) -->
<svg height="100%" stroke-miterlimit="10" style="fill-rule:nonzero;clip-rule:evenodd;stroke-linecap:round;stroke-linejoin:round;" version="1.1" viewBox="0 0 584.01 138.915" width="100%" xml:space="preserve" xmlns="http://www.w3.org/2000/svg" xmlns:xlink="http://www.w3.org/1999/xlink">
<defs>
</defs>
<clipPath id="ArtboardFrame">
<rect height="138.915" width="584.01" x="0" y="0"/>
</clipPath>
<g clip-path="url(#ArtboardFrame)" id="Layer-1" visibility="hidden">
<path d="M0.0289717-20.7724L636.843-20.7724L636.843 168.391L0.0289717 168.391L0.0289717-20.7724Z" fill="#262626" fill-rule="nonzero" opacity="1" stroke="none"/>
<path d="M28.8898 137.914L44.1679 137.914L44.1679 64.4813L90.8976 64.4813L96.1049 52.6713L10.7999 52.6713L10.7999 64.4813L28.8898 64.4813L28.8898 137.914Z" fill="#84cc16" fill-rule="nonzero" opacity="0" stroke="none"/>
<path d="M99.9374 138.945C120.839 138.945 134.524 124.417 134.524 104.452L134.524 103.702C134.524 83.5502 120.183 69.9593 100.031 69.9593C80.1603 69.9593 65.5384 84.1126 65.5384 104.077L65.5384 104.827C65.5384 124.417 78.9418 138.945 99.9374 138.945ZM100.219 126.854C89.2521 126.854 81.3788 118.418 81.3788 104.733L81.3788 103.983C81.3788 90.4862 88.4086 81.9568 100.031 81.9568C111.747 81.9568 118.683 90.8611 118.683 103.89L118.683 104.639C118.683 118.137 111.56 126.854 100.219 126.854Z" fill="#ffffff" fill-rule="nonzero" opacity="0" stroke="none"/>
<path d="M145.49 137.914L158.987 137.914L158.987 90.205L186.919 137.914L202.103 137.914L202.103 70.8966L188.606 70.8966L188.606 115.044L163.112 70.8966L145.49 70.8966L145.49 137.914Z" fill="#ffffff" fill-rule="nonzero" opacity="0" stroke="none"/>
<path d="M216.913 137.914L232.191 137.914L232.191 70.8966L216.913 70.8966L216.913 137.914Z" fill="#ffffff" fill-rule="nonzero" opacity="0" stroke="none"/>
<path d="M244.844 116.918L268.839 116.918L268.839 106.139L244.844 106.139L244.844 116.918Z" fill="#ffffff" fill-rule="nonzero" opacity="0" stroke="none"/>
<path d="M287.679 137.914L302.957 137.914L302.957 64.4813L586.616 64.4813L591.823 52.6713L269.589 52.6713L269.589 64.4813L287.679 64.4813L287.679 137.914Z" fill="#84cc16" fill-rule="nonzero" opacity="0" stroke="none"/>
<path d="M330.514 137.914L345.604 137.914L345.604 112.044L352.166 112.044L368.193 137.914L384.315 137.914L366.6 109.42C374.473 107.076 380.378 101.734 380.378 91.611L380.378 91.2361C380.378 77.364 370.349 70.8966 354.509 70.8966L330.514 70.8966L330.514 137.914ZM345.604 101.734L345.604 82.5192L354.134 82.5192C361.445 82.5192 365.569 84.8624 365.569 91.7047L365.569 92.0796C365.569 98.547 361.726 101.734 354.134 101.734L345.604 101.734Z" fill="#ffffff" fill-rule="nonzero" opacity="0" stroke="none"/>
<path d="M388.252 137.914L402.499 137.914L407.091 123.011L431.368 123.011L435.96 137.914L451.801 137.914L430.055 70.8966L410.278 70.8966L388.252 137.914ZM419.276 83.269L428.087 112.232L410.372 112.232L419.276 83.269Z" fill="#ffffff" fill-rule="nonzero" opacity="0" stroke="none"/>
<path d="M460.986 137.914L474.483 137.914L474.483 90.205L502.415 137.914L517.599 137.914L517.599 70.8966L504.102 70.8966L504.102 115.044L478.608 70.8966L460.986 70.8966L460.986 137.914Z" fill="#ffffff" fill-rule="nonzero" opacity="0" stroke="none"/>
<path d="M555.466 138.945C571.307 138.945 581.055 129.478 581.055 117.574C581.055 103.702 572.713 99.2969 556.497 97.2348C546.187 95.7351 544.031 93.4856 544.031 88.7054C544.031 84.2063 547.406 81.1132 554.06 81.1132C560.715 81.1132 564.277 83.9251 565.214 90.0176L579.18 90.0176C577.962 76.7079 569.151 69.9593 554.06 69.9593C539.251 69.9593 529.691 78.4888 529.691 89.9238C529.691 102.859 536.72 108.014 553.873 110.263C563.715 111.763 566.527 113.638 566.527 118.98C566.527 124.229 562.121 127.885 555.466 127.885C545.531 127.885 543 122.917 542.344 116.918L527.816 116.918C528.66 130.322 537.095 138.945 555.466 138.945Z" fill="#ffffff" fill-rule="nonzero" opacity="0" stroke="none"/>
<path d="M106.519 64.4813L111.727 52.6713L101.927 52.6713L96.7193 64.4813L106.519 64.4813Z" fill="#ffffff" fill-rule="nonzero" opacity="0" stroke="none"/>
<path d="M231.493 64.4813L231.493 52.6713L117.548 52.6713L112.341 64.4813L231.493 64.4813Z" fill="#84cc16" fill-rule="nonzero" opacity="0" stroke="none"/>
</g>
<g clip-path="url(#ArtboardFrame)" id="Layer-2">
<use opacity="0" transform="matrix(0.290698 0 0 0.290698 0.550108 107.829)" xlink:href="#Image"/>
<g opacity="0.5">
<path d="M298.881 121.7C298.881 121.7 302.576 127.787 304.443 127.9C306.31 128.013 320.32 128.048 322.018 128.01C323.715 127.973 328.012 121.531 328.012 121.531L298.881 121.7Z" fill="none" opacity="1" stroke="#ffffff" stroke-linecap="butt" stroke-linejoin="round" stroke-width="1"/>
<path d="M300.424 116.602L325.963 116.62L329.259 109.545L297.894 109.583L300.424 116.602Z" fill="none" opacity="1" stroke="#ffffff" stroke-linecap="butt" stroke-linejoin="round" stroke-width="1"/>
<path d="M294.5 101.005C294.5 101.005 308.965 101.666 313.642 101.741C318.319 101.816 332.953 101.243 332.953 101.243C332.953 101.243 335.8 92.1671 336.366 89.7155C336.932 87.2638 335.216 85.5477 335.216 85.5477L292.853 85.2786C292.853 85.2786 291.288 87.2776 291.873 89.8989C292.457 92.5203 294.5 101.005 294.5 101.005Z" fill="none" opacity="1" stroke="#ffffff" stroke-linecap="butt" stroke-linejoin="round" stroke-width="1"/>
<path d="M52.0596 108.768L52.1451 107.859L49.0958 105.18L29.8173 104.867L25.2959 108.652L23.3295 108.795L21.3145 110.134L21.1402 112.414" fill="none" opacity="1" stroke="#ffffff" stroke-linecap="butt" stroke-linejoin="round" stroke-width="1"/>
<path d="M106.636 113.714C106.636 113.714 104.556 109.183 100.452 108.841C96.3483 108.499 83.6378 107.092 80.0754 106.323C78.6222 107.522 76.5986 108.716 76.5986 108.716L76.5467 109.483" fill="none" opacity="1" stroke="#ffffff" stroke-linecap="butt" stroke-linejoin="round" stroke-width="1"/>
<path d="M62.3571 80.4857C62.3571 80.4857 62.7295 77.3304 64.0178 73.3945C65.4772 68.9357 66.8186 69.7517 69.5259 69.7517C72.2333 69.7517 83.6913 70.467 83.6913 70.467C83.6913 70.467 86.1136 69.8735 86.9686 76.4517C87.8235 83.0298 89.1088 88.6237 89.1943 90.5331C89.2798 92.4425 89.3653 96.9168 89.3653 96.9168L86.0594 96.9168" fill="none" opacity="1" stroke="#ffffff" stroke-linecap="butt" stroke-linejoin="round" stroke-width="1"/>
<path d="M86.6669 103.303L92.3626 103.817C92.3626 103.817 93.0451 97.1973 92.966 94.4099C92.8869 91.6225 91.645 84.579 91.645 84.579L100.285 64.5598C100.285 64.5598 102.476 58.5458 115.299 56.9464C128.122 55.347 165.552 51.4146 165.552 51.4146L169.98 49.6157L169.946 99.9354C169.946 99.9354 166.63 101.918 168.37 103.875C170.11 105.832 170.9 107.532 167.026 106.366C163.151 105.2 162.855 107.612 162.855 107.612C162.855 107.612 164.14 110.577 159.415 115.361C154.69 120.145 149.068 123.797 149.068 123.797L144.9 124.952L155.207 129.819L179.084 130.939C179.084 130.939 186.05 131.507 187.73 123.481C189.41 115.455 184.013 114.23 184.013 114.23C184.013 114.23 186.216 113.297 185.86 109.126C185.504 104.954 183.922 104.994 183.922 104.994L186.435 98.5598C186.435 98.5598 188.965 98.461 188.708 96.2667C188.451 94.0723 185.565 94.784 185.565 94.784L187.427 54.5373C187.427 54.5373 189.318 55.2993 188.101 47.8221C186.885 40.3448 185.242 32.9919 185.242 32.9919C185.242 32.9919 184.886 28.4056 180.992 28.3265L179.331 30.0464L120.02 36.9408L115.905 38.977L112.326 38.4037L99.6103 43.1412C99.6103 43.1412 93.0866 47.6089 90.833 49.8428C88.5794 52.0766 78.7626 66.7449 78.7626 66.7449L64.6075 65.977C64.6075 65.977 59.8684 65.4211 59.1118 69.8912C58.3551 74.3614 57.683 80.3118 57.683 80.3118" fill="none" opacity="1" stroke="#ffffff" stroke-linecap="butt" stroke-linejoin="round" stroke-width="1"/>
<path d="M20.0975 73.7433L13.1718 73.8635C13.1718 73.8635 10.4527 74.6872 10.128 79.1107L4.73053 79.4354C4.73053 79.4354 3.71595 78.3802 2.82313 84.9547C1.9303 91.5291 1.19981 100.539 1.19981 100.539C1.19981 100.539-0.64784 104.7 11.4459 104.579C23.5397 104.457 83.8766 106.216 83.8766 106.216C83.8766 106.216 86.7174 107.19 86.3116 99.6411C85.9057 92.0927 86.0895 91.4322 79.3527 91.2293C72.616 91.0264 66.9344 90.7829 66.9344 90.7829L63.6066 81.2458L51.7969 81.0428L51.2813 78.3975L48.9632 78.1284L48.3694 80.9692L46.0586 80.8205C46.0586 80.8205 46.1749 77.5058 41.349 77.3605C37.9453 77.258 36.7835 77.0679 36.7835 77.0679C36.7835 77.0679 32.8909 73.7562 29.575 73.8283C26.2591 73.9004 22.6308 73.8043 22.6308 73.8043C22.6308 73.8043 24.052 66.5358 17.3375 65.7377C17.1127 67.4398 17.2809 66.5748 17.2882 68.3898C20.9254 68.4821 20.0975 73.7433 20.0975 73.7433Z" fill="none" opacity="1" stroke="#ffffff" stroke-linecap="butt" stroke-linejoin="round" stroke-width="1"/>
<path d="M4.57082 124.298C4.57082 124.298 5.10873 129.901 11.5445 130.072C17.9803 130.243 112.563 132.034 112.563 132.034C112.563 132.034 118.947 131.606 120.998 126.904C123.05 122.202 121.739 118.753 119.659 116.644C117.579 114.535 116.296 114.108 112.449 114.108C108.602 114.108 97.2725 113.794 97.2725 113.794C97.2725 113.794 90.7661 113.666 86.6053 111.415C82.4446 109.164 75.3114 109.803 72.1195 110.373C68.9277 110.943 62.0275 109.914 58.8071 109.259C55.5868 108.603 48.2217 108.232 43.8437 109.886C39.2938 111.604 26.932 112.829 24.0252 112.686C21.1183 112.544 17.0451 111.083 13.8227 111.461C10.6848 111.828 6.71812 112.604 5.2647 117.363C3.81129 122.122 4.57082 124.298 4.57082 124.298Z" fill="none" opacity="1" stroke="#ffffff" stroke-linecap="butt" stroke-linejoin="round" stroke-width="1"/>
<path d="M313.844 134.665C313.844 134.665 326.576 135.031 331.549 134.805C336.522 134.579 345.21 135.969 345.153 126.294C345.097 116.62 345.709 106.275 345.652 104.728C345.596 103.182 343.955 100.561 343.955 100.561C343.955 100.561 346.312 100.655 346.293 96.7134C346.275 92.7719 346.729 86.2663 346.729 86.2663C346.729 86.2663 345.956 84.4936 345.635 84.3804C345.315 84.2673 345.268 80.5665 345.268 80.5665L347.55 80.2081L347.135 76.6627C347.135 76.6627 353.035 76.9194 352.809 71.243C352.583 65.5665 352.036 59.2323 352.036 59.2323C352.036 59.2323 351.904 53.1344 347.322 53.3985L344.926 53.191C344.926 53.191 343.229 44.8022 342.022 44.425C340.815 44.0478 340.896 39.5265 337.273 39.3191C333.65 39.1116 313.019 38.6898 313.019 38.6898" fill="none" opacity="1" stroke="#ffffff" stroke-linecap="butt" stroke-linejoin="round" stroke-width="1"/>
<path d="M314.029 134.665C314.029 134.665 301.316 135.031 296.343 134.805C291.37 134.579 282.682 135.969 282.739 126.294C282.796 116.62 282.183 106.275 282.24 104.728C282.297 103.182 283.937 100.561 283.937 100.561C283.937 100.561 281.58 100.655 281.599 96.7134C281.618 92.7719 281.163 86.2663 281.163 86.2663C281.163 86.2663 281.936 84.4936 282.257 84.3804C282.578 84.2673 282.624 80.5665 282.624 80.5665L280.342 80.2081L280.757 76.6627C280.757 76.6627 274.857 76.9194 275.083 71.243C275.31 65.5665 275.856 59.2323 275.856 59.2323C275.856 59.2323 275.988 53.1344 280.571 53.3985L282.966 53.191C282.966 53.191 284.663 44.8022 285.87 44.425C287.077 44.0478 286.996 39.5265 290.619 39.3191C294.242 39.1116 313.082 38.671 313.082 38.671" fill="none" opacity="1" stroke="#ffffff" stroke-linecap="butt" stroke-linejoin="round" stroke-width="1"/>
<path d="M285.869 51.7173L284.177 69.574C284.177 69.574 283.675 75.0857 290.631 75.1611C297.586 75.2366 332.617 75.104 337.971 75.1315C344.527 75.1652 343.661 68.7731 343.661 68.7731L341.98 51.9144L285.869 51.7173Z" fill="none" opacity="1" stroke="#ffffff" stroke-linecap="butt" stroke-linejoin="round" stroke-width="1"/>
<path d="M291.928 87.7767L308.79 87.867L310.45 89.6397L315.466 89.6775L316.937 87.8859L335.946 87.9373" fill="none" opacity="1" stroke="#ffffff" stroke-linecap="butt" stroke-linejoin="round" stroke-width="1"/>
<path d="M331.297 117.333C331.297 117.333 338.317 116.989 340.316 116.404C342.315 115.819 343.371 115.046 343.371 115.046L343.654 108.54L335.593 109.111C335.593 109.111 334.141 109.111 333.349 111.393C332.557 113.675 331.297 117.333 331.297 117.333Z" fill="none" opacity="1" stroke="#ffffff" stroke-linecap="butt" stroke-linejoin="round" stroke-width="1"/>
<path d="M334.164 121.239L333.127 125.425C333.127 125.425 340.407 125.357 341.765 124.131C343.123 122.905 342.878 120.51 342.878 120.51L334.164 121.239Z" fill="none" opacity="1" stroke="#ffffff" stroke-linecap="butt" stroke-linejoin="round" stroke-width="1"/>
<path d="M395.969 126.443L395.983 129.515C395.983 129.515 399.73 130.241 400.361 127.91C400.992 125.579 400.703 123.366 400.703 123.366" fill="none" opacity="1" stroke="#ffffff" stroke-linecap="butt" stroke-linejoin="round" stroke-width="1"/>
<path d="M296.628 117.333C296.628 117.333 289.608 116.989 287.609 116.404C285.61 115.819 284.554 115.046 284.554 115.046L284.271 108.54L292.332 109.111C292.332 109.111 293.784 109.111 294.576 111.393C295.368 113.675 296.628 117.333 296.628 117.333Z" fill="none" opacity="1" stroke="#ffffff" stroke-linecap="butt" stroke-linejoin="round" stroke-width="1"/>
<path d="M293.432 121.239L294.469 125.425C294.469 125.425 287.188 125.357 285.83 124.131C284.472 122.905 284.718 120.51 284.718 120.51L293.432 121.239Z" fill="none" opacity="1" stroke="#ffffff" stroke-linecap="butt" stroke-linejoin="round" stroke-width="1"/>
<path d="M554.003 107.549L548.443 107.498L532.877 90.3874L513.838 88.5726L511.56 91.0888L510.927 112.592L513.494 114.751L514.165 119.415C514.165 119.415 511.615 120.639 511.904 123.121C512.193 125.603 515.193 125.229 515.193 125.229L520.531 125.11L523.727 121.625C523.727 121.625 520.463 121.319 519.987 119.789C519.511 118.259 516.925 113.595 516.925 113.595L517.244 94.9032L520.491 94.4272L528.779 96.2555C528.779 96.2555 532.605 97.3123 535.75 101.171C538.895 105.031 542.448 109.417 542.448 109.417C542.448 109.417 542.856 112.307 544.709 112.97C546.563 113.633 545.696 115.01 545.696 115.01C545.696 115.01 544.402 117.139 543.978 118.836C543.637 120.267 541.802 119.975 541.802 119.975L539.932 119.958L540.595 117.323L538.028 116.047L535.954 123.953L537.722 125.551L537.807 127.982L539.847 126.537L540.748 122.491L544.556 122.695" fill="none" opacity="1" stroke="#ffffff" stroke-linecap="butt" stroke-linejoin="round" stroke-width="1"/>
<path d="M547.7 127.727L575.468 127.562C575.468 127.562 578.973 127.607 578.956 123.986C578.939 120.365 575.199 120.671 575.199 120.671L547.936 121.004C547.936 121.004 544.273 120.749 544.365 124.66C544.437 127.686 547.7 127.727 547.7 127.727Z" fill="none" opacity="1" stroke="#ffffff" stroke-linecap="butt" stroke-linejoin="round" stroke-width="1"/>
<path d="M571.675 120.956L571.544 117.559L580.207 117.54L581.601 113.528L581.356 101.85C581.356 101.85 581.782 98.42 576.377 99.2274C570.963 100.036 567.996 100.519 567.996 100.519" fill="none" opacity="1" stroke="#ffffff" stroke-linecap="butt" stroke-linejoin="round" stroke-width="1"/>
<path d="M579.601 99.2672L579.44 76.7131L554.154 76.8197L554.22 111.9L567.761 111.332L567.819 76.7279" fill="none" opacity="1" stroke="#ffffff" stroke-linecap="butt" stroke-linejoin="round" stroke-width="1"/>
<path d="M392.845 118.557C392.845 118.557 381.192 119.235 377.273 119.29C373.355 119.345 361.183 118.503 361.183 118.503C361.183 118.503 360.921 122.493 363.992 122.617C367.064 122.74 386.318 122.893 389.225 122.742C392.132 122.591 392.845 118.557 392.845 118.557Z" fill="none" opacity="1" stroke="#ffffff" stroke-linecap="butt" stroke-linejoin="round" stroke-width="1"/>
<path d="M361.46 120.277C361.46 120.277 372.144 121.048 377.187 120.981C382.195 120.915 392.148 120.263 392.148 120.263" fill="none" opacity="1" stroke="#ffffff" stroke-linecap="butt" stroke-linejoin="round" stroke-width="1"/>
<path d="M357.439 98.2015C357.439 98.2015 369.279 98.6696 377.413 98.6017C385.621 98.5333 397.221 98.1446 397.221 98.1446L392.606 87.2429L361.904 87.1757L357.439 98.2015Z" fill="none" opacity="1" stroke="#ffffff" stroke-linecap="butt" stroke-linejoin="round" stroke-width="1"/>
<path d="M401.286 112.048L399.544 113.241L393.931 114.077L391.861 112.843L392.738 109.415L400.052 107.533L401.273 106.436" fill="none" opacity="1" stroke="#ffffff" stroke-linecap="butt" stroke-linejoin="round" stroke-width="1"/>
<path d="M396.891 108.245L395.588 110.818L392.477 110.683" fill="none" opacity="1" stroke="#ffffff" stroke-linecap="butt" stroke-linejoin="round" stroke-width="1"/>
<path d="M400.444 107.419L400.391 109.189L399.407 110.82L397.12 110.937" fill="none" opacity="1" stroke="#ffffff" stroke-linecap="butt" stroke-linejoin="round" stroke-width="1"/>
<path d="M392.162 111.084L379.474 111.398" fill="none" opacity="1" stroke="#ffffff" stroke-linecap="butt" stroke-linejoin="round" stroke-width="1"/>
<path d="M392.232 112.89L379.658 113.29" fill="none" opacity="1" stroke="#ffffff" stroke-linecap="butt" stroke-linejoin="round" stroke-width="1"/>
<path d="M358.608 126.443L358.594 129.515C358.594 129.515 354.847 130.241 354.216 127.91C353.585 125.579 353.874 123.366 353.874 123.366" fill="none" opacity="1" stroke="#ffffff" stroke-linecap="butt" stroke-linejoin="round" stroke-width="1"/>
<path d="M353.291 112.048L355.033 113.241L360.646 114.077L362.716 112.843L361.839 109.415L354.525 107.533L353.304 106.436" fill="none" opacity="1" stroke="#ffffff" stroke-linecap="butt" stroke-linejoin="round" stroke-width="1"/>
<path d="M357.686 108.245L358.989 110.818L362.099 110.683" fill="none" opacity="1" stroke="#ffffff" stroke-linecap="butt" stroke-linejoin="round" stroke-width="1"/>
<path d="M354.133 107.419L354.186 109.189L355.17 110.82L357.457 110.937" fill="none" opacity="1" stroke="#ffffff" stroke-linecap="butt" stroke-linejoin="round" stroke-width="1"/>
<path d="M362.415 111.084L375.061 111.364" fill="none" opacity="1" stroke="#ffffff" stroke-linecap="butt" stroke-linejoin="round" stroke-width="1"/>
<path d="M362.344 112.89L374.827 113.299" fill="none" opacity="1" stroke="#ffffff" stroke-linecap="butt" stroke-linejoin="round" stroke-width="1"/>
<path d="M377.448 127.827C377.448 127.827 390.761 127.669 392.901 127.206C395.092 126.732 400.997 126.263 401.401 120.69C401.804 115.118 401.56 112.105 401.306 106.45C401.167 103.343 398.57 98.2635 398.57 98.2635C398.57 98.2635 402.154 97.7994 403.107 96.8591C403.143 95.7146 402.649 93.4673 401.169 93.5049C398.448 93.5742 399.073 96.1433 399.073 96.1433C399.073 96.1433 397.98 96.7102 397.761 96.0256C397.151 94.1161 394.466 87.6984 394.466 87.6984C394.466 87.6984 393.818 85.3641 391.477 85.3495C388.384 85.3303 377.499 85.1738 377.499 85.1738" fill="none" opacity="1" stroke="#ffffff" stroke-linecap="butt" stroke-linejoin="round" stroke-width="1"/>
<path d="M377.584 127.827C377.584 127.827 363.825 127.669 361.685 127.206C359.494 126.732 353.589 126.263 353.185 120.69C352.782 115.118 353.026 112.105 353.28 106.45C353.419 103.343 356.016 98.2635 356.016 98.2635C356.016 98.2635 352.432 97.7994 351.479 96.8591C351.443 95.7146 351.937 93.4673 353.417 93.5049C356.138 93.5742 355.513 96.1433 355.513 96.1433C355.513 96.1433 356.606 96.7102 356.825 96.0256C357.435 94.1161 360.12 87.6984 360.12 87.6984C360.12 87.6984 360.768 85.3641 363.109 85.3495C366.202 85.3303 377.508 85.1654 377.508 85.1654" fill="none" opacity="1" stroke="#ffffff" stroke-linecap="butt" stroke-linejoin="round" stroke-width="1"/>
<path d="M374.922 112.568C374.922 111.274 375.971 110.225 377.265 110.225C378.559 110.225 379.608 111.274 379.608 112.568C379.608 113.862 378.559 114.911 377.265 114.911C375.971 114.911 374.922 113.862 374.922 112.568Z" fill="none" opacity="1" stroke="#ffffff" stroke-linecap="butt" stroke-linejoin="round" stroke-width="1"/>
<path d="M237.328 136.067L241.492 137.491L278.761 122.015L267.305 104.578L267.022 102.48L262.124 102.788L262.061 100.367L242.527 102.049L237.004 105.82L229.458 106.509L224.124 115.002L223.981 123.022L225.553 127.609C225.553 127.609 225.886 129.528 229.392 131.041C232.898 132.555 237.245 134.75 237.245 134.75L237.328 136.067Z" fill="none" opacity="1" stroke="#ffffff" stroke-linecap="butt" stroke-linejoin="round" stroke-width="1"/>
<path d="M241.855 137.317L230.04 110.593L229.874 106.618" fill="none" opacity="1" stroke="#ffffff" stroke-linecap="butt" stroke-linejoin="round" stroke-width="1"/>
<path d="M242.395 93.6179L243.156 92.446L241.217 90.2603L241.061 88.5025L242.126 88.3853L241.794 86.4616L237.48 86.1261L232.557 80.6764L232.664 79.2311C232.664 79.2311 231.128 78.8112 230.279 78.8991C229.429 78.987 229.07 80.141 229.07 80.141C229.07 80.141 228.611 78.6033 227.987 78.7061C227.371 78.8077 226.961 79.9422 226.961 79.9422L226.336 70.1262C226.336 70.1262 226.908 68.8282 228.426 69.3841C228.96 69.5796 228.699 67.1495 228.699 67.1495L210.571 63.7319L202.423 67.5894C202.423 67.5894 199.577 66.7694 199.093 68.439C198.985 70.519 198.988 71.738 198.988 71.738C198.988 71.738 199.34 72.6559 200.765 72.6852C200.984 75.6132 201.16 81.7817 201.16 81.7817L196.209 83.5688L196.19 86.2738L193.121 86.4469L193.179 87.482L196.268 87.3063L198.066 95.3123L205.979 95.3402C205.979 95.3402 207.351 90.793 207.322 90.8223C207.293 90.8516 209.8 91.404 212.544 91.443C215.288 91.4821 216.949 91.4528 216.949 91.4528L217.427 94.6835" fill="none" opacity="1" stroke="#ffffff" stroke-linecap="butt" stroke-linejoin="round" stroke-width="1"/>
<path d="M205.001 69.6312L207.238 68.5375L207.534 80.7314L205.239 81.0927L205.001 69.6312Z" fill="none" opacity="1" stroke="#ffffff" stroke-linecap="butt" stroke-linejoin="round" stroke-width="1"/>
<path d="M202.016 71.2975L202.415 81.4504L204.027 81.0207L203.812 70.2048L202.016 71.2975Z" fill="none" opacity="1" stroke="#ffffff" stroke-linecap="butt" stroke-linejoin="round" stroke-width="1"/>
<path d="M209.72 78.2978C209.72 78.2978 209.785 81.0709 211.948 80.7364C214.531 80.337 219.292 80.3089 220.314 80.3418C222.027 80.3971 223.789 80.6159 225.238 80.8086C226.133 80.9278 225.054 70.3725 225.054 70.3725C225.054 70.3725 224.829 69.09 222.225 68.7237C219.62 68.3574 215.05 67.66 213.247 67.7274C211.54 67.7912 209.059 67.8211 209.115 68.9828C209.172 70.1444 209.72 78.2978 209.72 78.2978Z" fill="none" opacity="1" stroke="#ffffff" stroke-linecap="butt" stroke-linejoin="round" stroke-width="1"/>
<path d="M242.414 101.876L231.625 82.7823L231.672 91.6341L239.045 104.171" fill="none" opacity="1" stroke="#ffffff" stroke-linecap="butt" stroke-linejoin="round" stroke-width="1"/>
<path d="M227.01 110.106L218.165 90.9637L217.815 81.5997L229.479 106.345" fill="none" opacity="1" stroke="#ffffff" stroke-linecap="butt" stroke-linejoin="round" stroke-width="1"/>
<path d="M228.131 103.64L237.876 102.69" fill="none" opacity="1" stroke="#ffffff" stroke-linecap="butt" stroke-linejoin="round" stroke-width="1"/>
<path d="M200.722 95.4066L201.655 99.6392" fill="none" opacity="1" stroke="#ffffff" stroke-linecap="butt" stroke-linejoin="round" stroke-width="1"/>
<path d="M203.988 95.5268L202.947 99.762L200.734 99.8911L200.664 100.896L204.109 100.649L204.62 103.072L204.981 100.42L205.202 95.4766" fill="none" opacity="1" stroke="#ffffff" stroke-linecap="butt" stroke-linejoin="round" stroke-width="1"/>
<path d="M196.242 87.6884L196.313 92.094" fill="none" opacity="1" stroke="#ffffff" stroke-linecap="butt" stroke-linejoin="round" stroke-width="1"/>
<path d="M197.379 92.1997L193.225 92.4917L191.903 91.8838L191.057 93.3552L191.022 95.699L191.912 96.2277" fill="none" opacity="1" stroke="#ffffff" stroke-linecap="butt" stroke-linejoin="round" stroke-width="1"/>
<path d="M191.484 101.24C191.484 97.1215 192.616 93.7829 194.012 93.7829C195.408 93.7829 196.54 97.1215 196.54 101.24C196.54 105.358 195.408 108.697 194.012 108.697C192.616 108.697 191.484 105.358 191.484 101.24Z" fill="none" opacity="1" stroke="#ffffff" stroke-linecap="butt" stroke-linejoin="round" stroke-width="1"/>
<path d="M205.277 107.033C205.027 100.401 207.295 94.9313 210.343 94.8164C213.391 94.7015 216.065 99.9847 216.315 106.617C216.565 113.249 214.297 118.718 211.249 118.833C208.201 118.948 205.527 113.665 205.277 107.033Z" fill="none" opacity="1" stroke="#ffffff" stroke-linecap="butt" stroke-linejoin="round" stroke-width="1"/>
<path d="M249.771 101.155C249.771 101.155 248.467 96.8224 245.113 94.9655C241.954 93.2163 238.105 93.7466 238.105 93.7466" fill="none" opacity="1" stroke="#ffffff" stroke-linecap="butt" stroke-linejoin="round" stroke-width="1"/>
<path d="M224.163 104.195L222.453 104.193C222.453 104.193 221.637 95.0822 215.703 94.5841C212.691 94.3313 209.847 94.8652 209.847 94.8652" fill="none" opacity="1" stroke="#ffffff" stroke-linecap="butt" stroke-linejoin="round" stroke-width="1"/>
<path d="M213.241 91.4413L212.773 94.3267" fill="none" opacity="1" stroke="#ffffff" stroke-linecap="butt" stroke-linejoin="round" stroke-width="1"/>
<path d="M468.132 96.9781L470.081 97.1103L475.05 85.6891L488.873 85.2159L491.257 97.8375L499.072 96.6388L500.907 82.2649L504.294 82.678L506.543 94.6865L507.531 94.5075L506.775 87.5836L505.47 81.4896L500.827 80.8122L500.58 78.8294L492.797 75.5647L485.808 75.6497L467.82 75.2736L462.497 75.1369C462.497 75.1369 462.66 70.7124 461.242 70.6096C459.33 70.4712 458.036 70.6427 458.036 70.6427C458.036 70.6427 456.901 70.5443 456.847 73.2202C456.792 75.9153 456.814 78.0779 456.814 78.0779L454.951 77.7785L454.885 81.2979L456.108 82.2396" fill="none" opacity="1" stroke="#ffffff" stroke-linecap="butt" stroke-linejoin="round" stroke-width="1"/>
<path d="M405.172 121.979L407.985 122.222L409.36 121.463L411.013 122.049L408.977 123.852L412.485 123.59L413.642 122.906C413.642 122.906 415.475 123.68 415.512 123.71C415.55 123.74 413.434 125.721 413.434 125.721L416.391 125.615L417.961 124.728L420.734 125.788L418.529 127.898L421.722 127.831L423.42 126.832L426.28 127.623L424.26 130.382L427.023 130.07L429.288 129.016L432.752 130.301L430.214 132.464L433.861 132.013L435.664 131.45L439.578 132.734L437.449 135.565L440.332 135.426L442.925 133.909L447.202 135.434L445.406 138.064L448.678 138.114C448.678 138.114 455.253 135.4 457.222 133.83C459.19 132.26 467.347 126.304 467.347 126.304C467.347 126.304 471.021 118.53 470.435 114.564C469.849 110.597 467.896 108.628 467.896 108.628L467.483 100.777L465.286 96.3894L461.877 96.8798L444.954 91.8192L427.298 91.1216L420.616 94.388L418.61 94.4031L409.515 117.605L409.478 119.168L407.209 120.008L405.172 121.979Z" fill="none" opacity="1" stroke="#ffffff" stroke-linecap="butt" stroke-linejoin="round" stroke-width="1"/>
<path d="M462.25 97.0327L447.131 135.605" fill="none" opacity="1" stroke="#ffffff" stroke-linecap="butt" stroke-linejoin="round" stroke-width="1"/>
<path d="M467.745 75.015L467.799 58.1952L485.674 55.1995L492.568 58.7749L492.843 75.2046" fill="none" opacity="1" stroke="#ffffff" stroke-linecap="butt" stroke-linejoin="round" stroke-width="1"/>
<path d="M485.825 75.5136L485.621 55.2346" fill="none" opacity="1" stroke="#ffffff" stroke-linecap="butt" stroke-linejoin="round" stroke-width="1"/>
<path d="M462.976 96.3493C462.976 96.3493 462.742 90.9495 464.914 88.3239C467.085 85.6984 474.475 77.1909 474.475 77.1909L477.023 77.2242L476.768 81.0795C476.768 81.0795 471.901 87.2518 470.35 91.1846C468.799 95.1175 466.926 99.7666 466.926 99.7666" fill="none" opacity="1" stroke="#ffffff" stroke-linecap="butt" stroke-linejoin="round" stroke-width="1"/>
<path d="M455.45 94.8459C455.45 94.8459 457.26 89.9029 458.323 88.099C459.52 86.0669 462.751 81.5378 462.751 81.5378L463.15 76.6965L461.322 76.7297L453.14 85.7753C453.14 85.7753 449.509 89.8717 449.31 92.9626" fill="none" opacity="1" stroke="#ffffff" stroke-linecap="butt" stroke-linejoin="round" stroke-width="1"/>
<path d="M452.564 86.1851L449.252 85.9967L449.285 84.6341L453.876 84.7842" fill="none" opacity="1" stroke="#ffffff" stroke-linecap="butt" stroke-linejoin="round" stroke-width="1"/>
<path d="M443.543 91.4841C443.543 91.4841 444.851 88.9582 447.066 88.2603C449.282 87.5623 451.606 87.651 451.606 87.651" fill="none" opacity="1" stroke="#ffffff" stroke-linecap="butt" stroke-linejoin="round" stroke-width="1"/>
<path d="M478.197 102.742C478.197 94.6046 480.761 88.0076 483.924 88.0076C487.088 88.0076 489.652 94.6046 489.652 102.742C489.652 110.88 487.088 117.477 483.924 117.477C480.761 117.477 478.197 110.88 478.197 102.742Z" fill="none" opacity="1" stroke="#ffffff" stroke-linecap="butt" stroke-linejoin="round" stroke-width="1"/>
<path d="M500.652 97.2224C500.652 91.9736 501.811 87.7186 503.24 87.7186C504.67 87.7186 505.829 91.9736 505.829 97.2224C505.829 102.471 504.67 106.726 503.24 106.726C501.811 106.726 500.652 102.471 500.652 97.2224Z" fill="none" opacity="1" stroke="#ffffff" stroke-linecap="butt" stroke-linejoin="round" stroke-width="1"/>
</g>
</g>
<g clip-path="url(#ArtboardFrame)" id="Layer-4">
<g opacity="1">
<path d="M196.516 30.4569L201.988 30.4569L201.988 4.15664L218.725 4.15664L220.59-0.0731817L190.037-0.0731817L190.037 4.15664L196.516 4.15664L196.516 30.4569Z" fill="#84cc16" fill-rule="nonzero" opacity="1" stroke="none"/>
<path d="M221.962 30.8262C229.449 30.8262 234.35 25.6228 234.35 18.4724L234.35 18.2038C234.35 10.9863 229.214 6.11863 221.996 6.11863C214.879 6.11863 209.642 11.1877 209.642 18.3381L209.642 18.6067C209.642 25.6228 214.443 30.8262 221.962 30.8262ZM222.063 26.4956C218.135 26.4956 215.316 23.4743 215.316 18.5731L215.316 18.3046C215.316 13.4705 217.833 10.4156 221.996 10.4156C226.192 10.4156 228.676 13.6047 228.676 18.271L228.676 18.5395C228.676 23.3736 226.125 26.4956 222.063 26.4956Z" fill="#ffffff" fill-rule="nonzero" opacity="1" stroke="none"/>
<path d="M238.277 30.4569L243.112 30.4569L243.112 13.3698L253.115 30.4569L258.554 30.4569L258.554 6.45433L253.72 6.45433L253.72 22.2658L244.589 6.45433L238.277 6.45433L238.277 30.4569Z" fill="#ffffff" fill-rule="nonzero" opacity="1" stroke="none"/>
<path d="M263.858 30.4569L269.33 30.4569L269.33 6.45433L263.858 6.45433L263.858 30.4569Z" fill="#ffffff" fill-rule="nonzero" opacity="1" stroke="none"/>
<path d="M273.862 22.9372L282.456 22.9372L282.456 19.0767L273.862 19.0767L273.862 22.9372Z" fill="#ffffff" fill-rule="nonzero" opacity="1" stroke="none"/>
<path d="M289.203 30.4569L294.675 30.4569L294.675 4.15664L396.269 4.15664L398.134-0.0731817L282.724-0.0731817L282.724 4.15664L289.203 4.15664L289.203 30.4569Z" fill="#84cc16" fill-rule="nonzero" opacity="1" stroke="none"/>
<path d="M304.545 30.4569L309.949 30.4569L309.949 21.1916L312.299 21.1916L318.04 30.4569L323.814 30.4569L317.469 20.2516C320.289 19.4124 322.404 17.4989 322.404 13.8733L322.404 13.739C322.404 8.77066 318.812 6.45433 313.139 6.45433L304.545 6.45433L304.545 30.4569ZM309.949 17.4989L309.949 10.617L313.004 10.617C315.623 10.617 317.1 11.4563 317.1 13.9069L317.1 14.0412C317.1 16.3575 315.724 17.4989 313.004 17.4989L309.949 17.4989Z" fill="#ffffff" fill-rule="nonzero" opacity="1" stroke="none"/>
<path d="M325.224 30.4569L330.327 30.4569L331.971 25.1193L340.666 25.1193L342.311 30.4569L347.984 30.4569L340.196 6.45433L333.113 6.45433L325.224 30.4569ZM336.336 10.8856L339.491 21.2587L333.146 21.2587L336.336 10.8856Z" fill="#ffffff" fill-rule="nonzero" opacity="1" stroke="none"/>
<path d="M351.274 30.4569L356.108 30.4569L356.108 13.3698L366.112 30.4569L371.551 30.4569L371.551 6.45433L366.716 6.45433L366.716 22.2658L357.585 6.45433L351.274 6.45433L351.274 30.4569Z" fill="#ffffff" fill-rule="nonzero" opacity="1" stroke="none"/>
<path d="M385.113 30.8262C390.786 30.8262 394.277 27.4356 394.277 23.1722C394.277 18.2038 391.29 16.6261 385.482 15.8875C381.789 15.3504 381.017 14.5447 381.017 12.8326C381.017 11.2213 382.226 10.1135 384.609 10.1135C386.993 10.1135 388.268 11.1206 388.604 13.3026L393.606 13.3026C393.17 8.53567 390.014 6.11863 384.609 6.11863C379.305 6.11863 375.881 9.1735 375.881 13.269C375.881 17.9017 378.399 19.7481 384.542 20.5537C388.067 21.0909 389.074 21.7623 389.074 23.6758C389.074 25.5557 387.496 26.8649 385.113 26.8649C381.554 26.8649 380.648 25.0857 380.413 22.9372L375.21 22.9372C375.512 27.7377 378.533 30.8262 385.113 30.8262Z" fill="#ffffff" fill-rule="nonzero" opacity="1" stroke="none"/>
<path d="M224.32 4.15664L226.185-0.0731817L222.675-0.0731817L220.81 4.15664L224.32 4.15664Z" fill="#ffffff" fill-rule="nonzero" opacity="1" stroke="none"/>
<path d="M269.08 4.15664L269.08-0.0731817L228.27-0.0731817L226.405 4.15664L269.08 4.15664Z" fill="#84cc16" fill-rule="nonzero" opacity="1" stroke="none"/>
</g>
</g>
</svg>
