<?xml version="1.0" encoding="UTF-8" standalone="no"?>
<!DOCTYPE svg PUBLIC "-//W3C//DTD SVG 1.1//EN" "http://www.w3.org/Graphics/SVG/1.1/DTD/svg11.dtd">
<!-- Created with Vectornator (http://vectornator.io/) -->
<svg height="100%" stroke-miterlimit="10" style="fill-rule:nonzero;clip-rule:evenodd;stroke-linecap:round;stroke-linejoin:round;" version="1.1" viewBox="0 0 584.01 167.265" width="100%" xml:space="preserve" xmlns="http://www.w3.org/2000/svg" xmlns:xlink="http://www.w3.org/1999/xlink">
<defs/>
<clipPath id="ArtboardFrame">
<rect height="167.265" width="584.01" x="0" y="0"/>
</clipPath>
<g clip-path="url(#ArtboardFrame)" id="Layer-1" visibility="hidden">
<path d="M0.0289717-20.7724L636.843-20.7724L636.843 212.189L0.0289717 212.189L0.0289717-20.7724Z" fill="#171717" fill-rule="nonzero" opacity="1" stroke="none"/>
</g>
<g id="Layer-2">
<g opacity="0.5">
<path d="M298.881 149.7C298.881 149.7 302.576 155.787 304.443 155.9C306.31 156.013 320.32 156.048 322.018 156.01C323.715 155.973 328.012 149.531 328.012 149.531L298.881 149.7Z" fill="none" opacity="1" stroke="#ffffff" stroke-linecap="butt" stroke-linejoin="round" stroke-width="1"/>
<path d="M300.424 144.602L325.963 144.62L329.259 137.545L297.894 137.583L300.424 144.602Z" fill="none" opacity="1" stroke="#ffffff" stroke-linecap="butt" stroke-linejoin="round" stroke-width="1"/>
<path d="M294.5 129.005C294.5 129.005 308.965 129.666 313.642 129.741C318.319 129.816 332.953 129.243 332.953 129.243C332.953 129.243 335.8 120.167 336.366 117.715C336.932 115.264 335.216 113.548 335.216 113.548L292.853 113.279C292.853 113.279 291.288 115.278 291.873 117.899C292.457 120.52 294.5 129.005 294.5 129.005Z" fill="none" opacity="1" stroke="#ffffff" stroke-linecap="butt" stroke-linejoin="round" stroke-width="1"/>
<path d="M52.0596 140.768L52.1451 139.859L49.0958 137.18L29.8173 136.867L25.2959 140.652L23.3295 140.795L21.3145 142.134L21.1402 144.414" fill="none" opacity="1" stroke="#ffffff" stroke-linecap="butt" stroke-linejoin="round" stroke-width="1"/>
<path d="M106.636 145.714C106.636 145.714 104.556 141.183 100.452 140.841C96.3483 140.499 83.6378 139.092 80.0754 138.323C78.6222 139.522 76.5986 140.716 76.5986 140.716L76.5467 141.483" fill="none" opacity="1" stroke="#ffffff" stroke-linecap="butt" stroke-linejoin="round" stroke-width="1"/>
<path d="M62.3571 112.486C62.3571 112.486 62.7295 109.33 64.0178 105.394C65.4772 100.936 66.8186 101.752 69.5259 101.752C72.2333 101.752 83.6913 102.467 83.6913 102.467C83.6913 102.467 86.1136 101.874 86.9686 108.452C87.8235 115.03 89.1088 120.624 89.1943 122.533C89.2798 124.442 89.3653 128.917 89.3653 128.917L86.0594 128.917" fill="none" opacity="1" stroke="#ffffff" stroke-linecap="butt" stroke-linejoin="round" stroke-width="1"/>
<path d="M86.6669 135.303L92.3626 135.817C92.3626 135.817 93.0451 129.197 92.966 126.41C92.8869 123.623 91.645 116.579 91.645 116.579L100.285 96.5598C100.285 96.5598 102.476 90.5458 115.299 88.9464C128.122 87.347 165.552 83.4146 165.552 83.4146L169.98 81.6157L169.946 131.935C169.946 131.935 166.63 133.918 168.37 135.875C170.11 137.832 170.9 139.532 167.026 138.366C163.151 137.2 162.855 139.612 162.855 139.612C162.855 139.612 164.14 142.577 159.415 147.361C154.69 152.145 149.068 155.797 149.068 155.797L144.9 156.952L155.207 161.819L179.084 162.939C179.084 162.939 186.05 163.507 187.73 155.481C189.41 147.455 184.013 146.23 184.013 146.23C184.013 146.23 186.216 145.297 185.86 141.126C185.504 136.954 183.922 136.994 183.922 136.994L186.435 130.56C186.435 130.56 188.965 130.461 188.708 128.267C188.451 126.072 185.565 126.784 185.565 126.784L187.427 86.5373C187.427 86.5373 189.318 87.2993 188.101 79.8221C186.885 72.3448 185.242 64.9919 185.242 64.9919C185.242 64.9919 184.886 60.4056 180.992 60.3265L179.331 62.0464L120.02 68.9408L115.905 70.977L112.326 70.4037L99.6103 75.1412C99.6103 75.1412 93.0866 79.6089 90.833 81.8428C88.5794 84.0766 78.7626 98.7449 78.7626 98.7449L64.6075 97.977C64.6075 97.977 59.8684 97.4211 59.1118 101.891C58.3551 106.361 57.683 112.312 57.683 112.312" fill="none" opacity="1" stroke="#ffffff" stroke-linecap="butt" stroke-linejoin="round" stroke-width="1"/>
<path d="M20.0975 105.743L13.1718 105.863C13.1718 105.863 10.4527 106.687 10.128 111.111L4.73053 111.435C4.73053 111.435 3.71595 110.38 2.82313 116.955C1.9303 123.529 1.19981 132.539 1.19981 132.539C1.19981 132.539-0.64784 136.7 11.4459 136.579C23.5397 136.457 83.8766 138.216 83.8766 138.216C83.8766 138.216 86.7174 139.19 86.3116 131.641C85.9057 124.093 86.0895 123.432 79.3527 123.229C72.616 123.026 66.9344 122.783 66.9344 122.783L63.6066 113.246L51.7969 113.043L51.2813 110.397L48.9632 110.128L48.3694 112.969L46.0586 112.821C46.0586 112.821 46.1749 109.506 41.349 109.36C37.9453 109.258 36.7835 109.068 36.7835 109.068C36.7835 109.068 32.8909 105.756 29.575 105.828C26.2591 105.9 22.6308 105.804 22.6308 105.804C22.6308 105.804 24.052 98.5358 17.3375 97.7377C17.1127 99.4398 17.2809 98.5748 17.2882 100.39C20.9254 100.482 20.0975 105.743 20.0975 105.743Z" fill="none" opacity="1" stroke="#ffffff" stroke-linecap="butt" stroke-linejoin="round" stroke-width="1"/>
<path d="M4.57082 156.298C4.57082 156.298 5.10873 161.901 11.5445 162.072C17.9803 162.243 112.563 164.034 112.563 164.034C112.563 164.034 118.947 163.606 120.998 158.904C123.05 154.202 121.739 150.753 119.659 148.644C117.579 146.535 116.296 146.108 112.449 146.108C108.602 146.108 97.2725 145.794 97.2725 145.794C97.2725 145.794 90.7661 145.666 86.6053 143.415C82.4446 141.164 75.3114 141.803 72.1195 142.373C68.9277 142.943 62.0275 141.914 58.8071 141.259C55.5868 140.603 48.2217 140.232 43.8437 141.886C39.2938 143.604 26.932 144.829 24.0252 144.686C21.1183 144.544 17.0451 143.083 13.8227 143.461C10.6848 143.828 6.71812 144.604 5.2647 149.363C3.81129 154.122 4.57082 156.298 4.57082 156.298Z" fill="none" opacity="1" stroke="#ffffff" stroke-linecap="butt" stroke-linejoin="round" stroke-width="1"/>
<path d="M313.844 162.665C313.844 162.665 326.576 163.031 331.549 162.805C336.522 162.579 345.21 163.969 345.153 154.294C345.097 144.62 345.709 134.275 345.652 132.728C345.596 131.182 343.955 128.561 343.955 128.561C343.955 128.561 346.312 128.655 346.293 124.713C346.275 120.772 346.729 114.266 346.729 114.266C346.729 114.266 345.956 112.494 345.635 112.38C345.315 112.267 345.268 108.566 345.268 108.566L347.55 108.208L347.135 104.663C347.135 104.663 353.035 104.919 352.809 99.243C352.583 93.5665 352.036 87.2323 352.036 87.2323C352.036 87.2323 351.904 81.1344 347.322 81.3985L344.926 81.191C344.926 81.191 343.229 72.8022 342.022 72.425C340.815 72.0478 340.896 67.5265 337.273 67.3191C333.65 67.1116 313.019 66.6898 313.019 66.6898" fill="none" opacity="1" stroke="#ffffff" stroke-linecap="butt" stroke-linejoin="round" stroke-width="1"/>
<path d="M314.029 162.665C314.029 162.665 301.316 163.031 296.343 162.805C291.37 162.579 282.682 163.969 282.739 154.294C282.796 144.62 282.183 134.275 282.24 132.728C282.297 131.182 283.937 128.561 283.937 128.561C283.937 128.561 281.58 128.655 281.599 124.713C281.618 120.772 281.163 114.266 281.163 114.266C281.163 114.266 281.936 112.494 282.257 112.38C282.578 112.267 282.624 108.566 282.624 108.566L280.342 108.208L280.757 104.663C280.757 104.663 274.857 104.919 275.083 99.243C275.31 93.5665 275.856 87.2323 275.856 87.2323C275.856 87.2323 275.988 81.1344 280.571 81.3985L282.966 81.191C282.966 81.191 284.663 72.8022 285.87 72.425C287.077 72.0478 286.996 67.5265 290.619 67.3191C294.242 67.1116 313.082 66.671 313.082 66.671" fill="none" opacity="1" stroke="#ffffff" stroke-linecap="butt" stroke-linejoin="round" stroke-width="1"/>
<path d="M285.869 79.7173L284.177 97.574C284.177 97.574 283.675 103.086 290.631 103.161C297.586 103.237 332.617 103.104 337.971 103.132C344.527 103.165 343.661 96.7731 343.661 96.7731L341.98 79.9144L285.869 79.7173Z" fill="none" opacity="1" stroke="#ffffff" stroke-linecap="butt" stroke-linejoin="round" stroke-width="1"/>
<path d="M291.928 115.777L308.79 115.867L310.45 117.64L315.466 117.677L316.937 115.886L335.946 115.937" fill="none" opacity="1" stroke="#ffffff" stroke-linecap="butt" stroke-linejoin="round" stroke-width="1"/>
<path d="M331.297 145.333C331.297 145.333 338.317 144.989 340.316 144.404C342.315 143.819 343.371 143.046 343.371 143.046L343.654 136.54L335.593 137.111C335.593 137.111 334.141 137.111 333.349 139.393C332.557 141.675 331.297 145.333 331.297 145.333Z" fill="none" opacity="1" stroke="#ffffff" stroke-linecap="butt" stroke-linejoin="round" stroke-width="1"/>
<path d="M334.164 149.239L333.127 153.425C333.127 153.425 340.407 153.357 341.765 152.131C343.123 150.905 342.878 148.51 342.878 148.51L334.164 149.239Z" fill="none" opacity="1" stroke="#ffffff" stroke-linecap="butt" stroke-linejoin="round" stroke-width="1"/>
<path d="M395.969 154.443L395.983 157.515C395.983 157.515 399.73 158.241 400.361 155.91C400.992 153.579 400.703 151.366 400.703 151.366" fill="none" opacity="1" stroke="#ffffff" stroke-linecap="butt" stroke-linejoin="round" stroke-width="1"/>
<path d="M296.628 145.333C296.628 145.333 289.608 144.989 287.609 144.404C285.61 143.819 284.554 143.046 284.554 143.046L284.271 136.54L292.332 137.111C292.332 137.111 293.784 137.111 294.576 139.393C295.368 141.675 296.628 145.333 296.628 145.333Z" fill="none" opacity="1" stroke="#ffffff" stroke-linecap="butt" stroke-linejoin="round" stroke-width="1"/>
<path d="M293.432 149.239L294.469 153.425C294.469 153.425 287.188 153.357 285.83 152.131C284.472 150.905 284.718 148.51 284.718 148.51L293.432 149.239Z" fill="none" opacity="1" stroke="#ffffff" stroke-linecap="butt" stroke-linejoin="round" stroke-width="1"/>
<path d="M554.003 135.549L548.443 135.498L532.877 118.387L513.838 116.573L511.56 119.089L510.927 140.592L513.494 142.751L514.165 147.415C514.165 147.415 511.615 148.639 511.904 151.121C512.193 153.603 515.193 153.229 515.193 153.229L520.531 153.11L523.727 149.625C523.727 149.625 520.463 149.319 519.987 147.789C519.511 146.259 516.925 141.595 516.925 141.595L517.244 122.903L520.491 122.427L528.779 124.256C528.779 124.256 532.605 125.312 535.75 129.171C538.895 133.031 542.448 137.417 542.448 137.417C542.448 137.417 542.856 140.307 544.709 140.97C546.563 141.633 545.696 143.01 545.696 143.01C545.696 143.01 544.402 145.139 543.978 146.836C543.637 148.267 541.802 147.975 541.802 147.975L539.932 147.958L540.595 145.323L538.028 144.047L535.954 151.953L537.722 153.551L537.807 155.982L539.847 154.537L540.748 150.491L544.556 150.695" fill="none" opacity="1" stroke="#ffffff" stroke-linecap="butt" stroke-linejoin="round" stroke-width="1"/>
<path d="M547.7 155.727L575.468 155.562C575.468 155.562 578.973 155.607 578.956 151.986C578.939 148.365 575.199 148.671 575.199 148.671L547.936 149.004C547.936 149.004 544.273 148.749 544.365 152.66C544.437 155.686 547.7 155.727 547.7 155.727Z" fill="none" opacity="1" stroke="#ffffff" stroke-linecap="butt" stroke-linejoin="round" stroke-width="1"/>
<path d="M571.675 148.956L571.544 145.559L580.207 145.54L581.601 141.528L581.356 129.85C581.356 129.85 581.782 126.42 576.377 127.227C570.963 128.036 567.996 128.519 567.996 128.519" fill="none" opacity="1" stroke="#ffffff" stroke-linecap="butt" stroke-linejoin="round" stroke-width="1"/>
<path d="M579.601 127.267L579.44 104.713L554.154 104.82L554.22 139.9L567.761 139.332L567.819 104.728" fill="none" opacity="1" stroke="#ffffff" stroke-linecap="butt" stroke-linejoin="round" stroke-width="1"/>
<path d="M392.845 146.557C392.845 146.557 381.192 147.235 377.273 147.29C373.355 147.345 361.183 146.503 361.183 146.503C361.183 146.503 360.921 150.493 363.992 150.617C367.064 150.74 386.318 150.893 389.225 150.742C392.132 150.591 392.845 146.557 392.845 146.557Z" fill="none" opacity="1" stroke="#ffffff" stroke-linecap="butt" stroke-linejoin="round" stroke-width="1"/>
<path d="M361.46 148.277C361.46 148.277 372.144 149.048 377.187 148.981C382.195 148.915 392.148 148.263 392.148 148.263" fill="none" opacity="1" stroke="#ffffff" stroke-linecap="butt" stroke-linejoin="round" stroke-width="1"/>
<path d="M357.439 126.202C357.439 126.202 369.279 126.67 377.413 126.602C385.621 126.533 397.221 126.145 397.221 126.145L392.606 115.243L361.904 115.176L357.439 126.202Z" fill="none" opacity="1" stroke="#ffffff" stroke-linecap="butt" stroke-linejoin="round" stroke-width="1"/>
<path d="M401.286 140.048L399.544 141.241L393.931 142.077L391.861 140.843L392.738 137.415L400.052 135.533L401.273 134.436" fill="none" opacity="1" stroke="#ffffff" stroke-linecap="butt" stroke-linejoin="round" stroke-width="1"/>
<path d="M396.891 136.245L395.588 138.818L392.477 138.683" fill="none" opacity="1" stroke="#ffffff" stroke-linecap="butt" stroke-linejoin="round" stroke-width="1"/>
<path d="M400.444 135.419L400.391 137.189L399.407 138.82L397.12 138.937" fill="none" opacity="1" stroke="#ffffff" stroke-linecap="butt" stroke-linejoin="round" stroke-width="1"/>
<path d="M392.162 139.084L379.474 139.398" fill="none" opacity="1" stroke="#ffffff" stroke-linecap="butt" stroke-linejoin="round" stroke-width="1"/>
<path d="M392.232 140.89L379.658 141.29" fill="none" opacity="1" stroke="#ffffff" stroke-linecap="butt" stroke-linejoin="round" stroke-width="1"/>
<path d="M358.608 154.443L358.594 157.515C358.594 157.515 354.847 158.241 354.216 155.91C353.585 153.579 353.874 151.366 353.874 151.366" fill="none" opacity="1" stroke="#ffffff" stroke-linecap="butt" stroke-linejoin="round" stroke-width="1"/>
<path d="M353.291 140.048L355.033 141.241L360.646 142.077L362.716 140.843L361.839 137.415L354.525 135.533L353.304 134.436" fill="none" opacity="1" stroke="#ffffff" stroke-linecap="butt" stroke-linejoin="round" stroke-width="1"/>
<path d="M357.686 136.245L358.989 138.818L362.099 138.683" fill="none" opacity="1" stroke="#ffffff" stroke-linecap="butt" stroke-linejoin="round" stroke-width="1"/>
<path d="M354.133 135.419L354.186 137.189L355.17 138.82L357.457 138.937" fill="none" opacity="1" stroke="#ffffff" stroke-linecap="butt" stroke-linejoin="round" stroke-width="1"/>
<path d="M362.415 139.084L375.061 139.364" fill="none" opacity="1" stroke="#ffffff" stroke-linecap="butt" stroke-linejoin="round" stroke-width="1"/>
<path d="M362.344 140.89L374.827 141.299" fill="none" opacity="1" stroke="#ffffff" stroke-linecap="butt" stroke-linejoin="round" stroke-width="1"/>
<path d="M377.448 155.827C377.448 155.827 390.761 155.669 392.901 155.206C395.092 154.732 400.997 154.263 401.401 148.69C401.804 143.118 401.56 140.105 401.306 134.45C401.167 131.343 398.57 126.264 398.57 126.264C398.57 126.264 402.154 125.799 403.107 124.859C403.143 123.715 402.649 121.467 401.169 121.505C398.448 121.574 399.073 124.143 399.073 124.143C399.073 124.143 397.98 124.71 397.761 124.026C397.151 122.116 394.466 115.698 394.466 115.698C394.466 115.698 393.818 113.364 391.477 113.349C388.384 113.33 377.499 113.174 377.499 113.174" fill="none" opacity="1" stroke="#ffffff" stroke-linecap="butt" stroke-linejoin="round" stroke-width="1"/>
<path d="M377.584 155.827C377.584 155.827 363.825 155.669 361.685 155.206C359.494 154.732 353.589 154.263 353.185 148.69C352.782 143.118 353.026 140.105 353.28 134.45C353.419 131.343 356.016 126.264 356.016 126.264C356.016 126.264 352.432 125.799 351.479 124.859C351.443 123.715 351.937 121.467 353.417 121.505C356.138 121.574 355.513 124.143 355.513 124.143C355.513 124.143 356.606 124.71 356.825 124.026C357.435 122.116 360.12 115.698 360.12 115.698C360.12 115.698 360.768 113.364 363.109 113.349C366.202 113.33 377.508 113.165 377.508 113.165" fill="none" opacity="1" stroke="#ffffff" stroke-linecap="butt" stroke-linejoin="round" stroke-width="1"/>
<path d="M374.922 140.568C374.922 139.274 375.971 138.225 377.265 138.225C378.559 138.225 379.608 139.274 379.608 140.568C379.608 141.862 378.559 142.911 377.265 142.911C375.971 142.911 374.922 141.862 374.922 140.568Z" fill="none" opacity="1" stroke="#ffffff" stroke-linecap="butt" stroke-linejoin="round" stroke-width="1"/>
<path d="M237.328 164.067L241.492 165.491L278.761 150.015L267.305 132.578L267.022 130.48L262.124 130.788L262.061 128.367L242.527 130.049L237.004 133.82L229.458 134.509L224.124 143.002L223.981 151.022L225.553 155.609C225.553 155.609 225.886 157.528 229.392 159.041C232.898 160.555 237.245 162.75 237.245 162.75L237.328 164.067Z" fill="none" opacity="1" stroke="#ffffff" stroke-linecap="butt" stroke-linejoin="round" stroke-width="1"/>
<path d="M241.855 165.317L230.04 138.593L229.874 134.618" fill="none" opacity="1" stroke="#ffffff" stroke-linecap="butt" stroke-linejoin="round" stroke-width="1"/>
<path d="M242.395 121.618L243.156 120.446L241.217 118.26L241.061 116.503L242.126 116.385L241.794 114.462L237.48 114.126L232.557 108.676L232.664 107.231C232.664 107.231 231.128 106.811 230.279 106.899C229.429 106.987 229.07 108.141 229.07 108.141C229.07 108.141 228.611 106.603 227.987 106.706C227.371 106.808 226.961 107.942 226.961 107.942L226.336 98.1262C226.336 98.1262 226.908 96.8282 228.426 97.3841C228.96 97.5796 228.699 95.1495 228.699 95.1495L210.571 91.7319L202.423 95.5894C202.423 95.5894 199.577 94.7694 199.093 96.439C198.985 98.519 198.988 99.738 198.988 99.738C198.988 99.738 199.34 100.656 200.765 100.685C200.984 103.613 201.16 109.782 201.16 109.782L196.209 111.569L196.19 114.274L193.121 114.447L193.179 115.482L196.268 115.306L198.066 123.312L205.979 123.34C205.979 123.34 207.351 118.793 207.322 118.822C207.293 118.852 209.8 119.404 212.544 119.443C215.288 119.482 216.949 119.453 216.949 119.453L217.427 122.683" fill="none" opacity="1" stroke="#ffffff" stroke-linecap="butt" stroke-linejoin="round" stroke-width="1"/>
<path d="M205.001 97.6312L207.238 96.5375L207.534 108.731L205.239 109.093L205.001 97.6312Z" fill="none" opacity="1" stroke="#ffffff" stroke-linecap="butt" stroke-linejoin="round" stroke-width="1"/>
<path d="M202.016 99.2975L202.415 109.45L204.027 109.021L203.812 98.2048L202.016 99.2975Z" fill="none" opacity="1" stroke="#ffffff" stroke-linecap="butt" stroke-linejoin="round" stroke-width="1"/>
<path d="M209.72 106.298C209.72 106.298 209.785 109.071 211.948 108.736C214.531 108.337 219.292 108.309 220.314 108.342C222.027 108.397 223.789 108.616 225.238 108.809C226.133 108.928 225.054 98.3725 225.054 98.3725C225.054 98.3725 224.829 97.09 222.225 96.7237C219.62 96.3574 215.05 95.66 213.247 95.7274C211.54 95.7912 209.059 95.8211 209.115 96.9828C209.172 98.1444 209.72 106.298 209.72 106.298Z" fill="none" opacity="1" stroke="#ffffff" stroke-linecap="butt" stroke-linejoin="round" stroke-width="1"/>
<path d="M242.414 129.876L231.625 110.782L231.672 119.634L239.045 132.171" fill="none" opacity="1" stroke="#ffffff" stroke-linecap="butt" stroke-linejoin="round" stroke-width="1"/>
<path d="M227.01 138.106L218.165 118.964L217.815 109.6L229.479 134.345" fill="none" opacity="1" stroke="#ffffff" stroke-linecap="butt" stroke-linejoin="round" stroke-width="1"/>
<path d="M228.131 131.64L237.876 130.69" fill="none" opacity="1" stroke="#ffffff" stroke-linecap="butt" stroke-linejoin="round" stroke-width="1"/>
<path d="M200.722 123.407L201.655 127.639" fill="none" opacity="1" stroke="#ffffff" stroke-linecap="butt" stroke-linejoin="round" stroke-width="1"/>
<path d="M203.988 123.527L202.947 127.762L200.734 127.891L200.664 128.896L204.109 128.649L204.62 131.072L204.981 128.42L205.202 123.477" fill="none" opacity="1" stroke="#ffffff" stroke-linecap="butt" stroke-linejoin="round" stroke-width="1"/>
<path d="M196.242 115.688L196.313 120.094" fill="none" opacity="1" stroke="#ffffff" stroke-linecap="butt" stroke-linejoin="round" stroke-width="1"/>
<path d="M197.379 120.2L193.225 120.492L191.903 119.884L191.057 121.355L191.022 123.699L191.912 124.228" fill="none" opacity="1" stroke="#ffffff" stroke-linecap="butt" stroke-linejoin="round" stroke-width="1"/>
<path d="M191.484 129.24C191.484 125.122 192.616 121.783 194.012 121.783C195.408 121.783 196.54 125.122 196.54 129.24C196.54 133.358 195.408 136.697 194.012 136.697C192.616 136.697 191.484 133.358 191.484 129.24Z" fill="none" opacity="1" stroke="#ffffff" stroke-linecap="butt" stroke-linejoin="round" stroke-width="1"/>
<path d="M205.277 135.033C205.027 128.401 207.295 122.931 210.343 122.816C213.391 122.701 216.065 127.985 216.315 134.617C216.565 141.249 214.297 146.718 211.249 146.833C208.201 146.948 205.527 141.665 205.277 135.033Z" fill="none" opacity="1" stroke="#ffffff" stroke-linecap="butt" stroke-linejoin="round" stroke-width="1"/>
<path d="M249.771 129.155C249.771 129.155 248.467 124.822 245.113 122.965C241.954 121.216 238.105 121.747 238.105 121.747" fill="none" opacity="1" stroke="#ffffff" stroke-linecap="butt" stroke-linejoin="round" stroke-width="1"/>
<path d="M224.163 132.195L222.453 132.193C222.453 132.193 221.637 123.082 215.703 122.584C212.691 122.331 209.847 122.865 209.847 122.865" fill="none" opacity="1" stroke="#ffffff" stroke-linecap="butt" stroke-linejoin="round" stroke-width="1"/>
<path d="M213.241 119.441L212.773 122.327" fill="none" opacity="1" stroke="#ffffff" stroke-linecap="butt" stroke-linejoin="round" stroke-width="1"/>
<path d="M468.132 124.978L470.081 125.11L475.05 113.689L488.873 113.216L491.257 125.837L499.072 124.639L500.907 110.265L504.294 110.678L506.543 122.687L507.531 122.508L506.775 115.584L505.47 109.49L500.827 108.812L500.58 106.829L492.797 103.565L485.808 103.65L467.82 103.274L462.497 103.137C462.497 103.137 462.66 98.7124 461.242 98.6096C459.33 98.4712 458.036 98.6427 458.036 98.6427C458.036 98.6427 456.901 98.5443 456.847 101.22C456.792 103.915 456.814 106.078 456.814 106.078L454.951 105.779L454.885 109.298L456.108 110.24" fill="none" opacity="1" stroke="#ffffff" stroke-linecap="butt" stroke-linejoin="round" stroke-width="1"/>
<path d="M405.172 149.979L407.985 150.222L409.36 149.463L411.013 150.049L408.977 151.852L412.485 151.59L413.642 150.906C413.642 150.906 415.475 151.68 415.512 151.71C415.55 151.74 413.434 153.721 413.434 153.721L416.391 153.615L417.961 152.728L420.734 153.788L418.529 155.898L421.722 155.831L423.42 154.832L426.28 155.623L424.26 158.382L427.023 158.07L429.288 157.016L432.752 158.301L430.214 160.464L433.861 160.013L435.664 159.45L439.578 160.734L437.449 163.565L440.332 163.426L442.925 161.909L447.202 163.434L445.406 166.064L448.678 166.114C448.678 166.114 455.253 163.4 457.222 161.83C459.19 160.26 467.347 154.304 467.347 154.304C467.347 154.304 471.021 146.53 470.435 142.564C469.849 138.597 467.896 136.628 467.896 136.628L467.483 128.777L465.286 124.389L461.877 124.88L444.954 119.819L427.298 119.122L420.616 122.388L418.61 122.403L409.515 145.605L409.478 147.168L407.209 148.008L405.172 149.979Z" fill="none" opacity="1" stroke="#ffffff" stroke-linecap="butt" stroke-linejoin="round" stroke-width="1"/>
<path d="M462.25 125.033L447.131 163.605" fill="none" opacity="1" stroke="#ffffff" stroke-linecap="butt" stroke-linejoin="round" stroke-width="1"/>
<path d="M467.745 103.015L467.799 86.1952L485.674 83.1995L492.568 86.7749L492.843 103.205" fill="none" opacity="1" stroke="#ffffff" stroke-linecap="butt" stroke-linejoin="round" stroke-width="1"/>
<path d="M485.825 103.514L485.621 83.2346" fill="none" opacity="1" stroke="#ffffff" stroke-linecap="butt" stroke-linejoin="round" stroke-width="1"/>
<path d="M462.976 124.349C462.976 124.349 462.742 118.95 464.914 116.324C467.085 113.698 474.475 105.191 474.475 105.191L477.023 105.224L476.768 109.08C476.768 109.08 471.901 115.252 470.35 119.185C468.799 123.117 466.926 127.767 466.926 127.767" fill="none" opacity="1" stroke="#ffffff" stroke-linecap="butt" stroke-linejoin="round" stroke-width="1"/>
<path d="M455.45 122.846C455.45 122.846 457.26 117.903 458.323 116.099C459.52 114.067 462.751 109.538 462.751 109.538L463.15 104.696L461.322 104.73L453.14 113.775C453.14 113.775 449.509 117.872 449.31 120.963" fill="none" opacity="1" stroke="#ffffff" stroke-linecap="butt" stroke-linejoin="round" stroke-width="1"/>
<path d="M452.564 114.185L449.252 113.997L449.285 112.634L453.876 112.784" fill="none" opacity="1" stroke="#ffffff" stroke-linecap="butt" stroke-linejoin="round" stroke-width="1"/>
<path d="M443.543 119.484C443.543 119.484 444.851 116.958 447.066 116.26C449.282 115.562 451.606 115.651 451.606 115.651" fill="none" opacity="1" stroke="#ffffff" stroke-linecap="butt" stroke-linejoin="round" stroke-width="1"/>
<path d="M478.197 130.742C478.197 122.605 480.761 116.008 483.924 116.008C487.088 116.008 489.652 122.605 489.652 130.742C489.652 138.88 487.088 145.477 483.924 145.477C480.761 145.477 478.197 138.88 478.197 130.742Z" fill="none" opacity="1" stroke="#ffffff" stroke-linecap="butt" stroke-linejoin="round" stroke-width="1"/>
<path d="M500.652 125.222C500.652 119.974 501.811 115.719 503.24 115.719C504.67 115.719 505.829 119.974 505.829 125.222C505.829 130.471 504.67 134.726 503.24 134.726C501.811 134.726 500.652 130.471 500.652 125.222Z" fill="none" opacity="1" stroke="#ffffff" stroke-linecap="butt" stroke-linejoin="round" stroke-width="1"/>
</g>
</g>
<g clip-path="url(#ArtboardFrame)" id="Layer-4">
<g opacity="1">
<path d="M139.341 48.6605L148.075 48.6605L148.075 6.67867L174.791 6.67867L177.768-0.0731817L128.998-0.0731817L128.998 6.67867L139.341 6.67867L139.341 48.6605Z" fill="#84cc16" fill-rule="nonzero" opacity="1" stroke="none"/>
<path d="M179.959 49.2499C191.909 49.2499 199.732 40.944 199.732 29.5302L199.732 29.1015C199.732 17.5805 191.534 9.81049 180.012 9.81049C168.652 9.81049 160.293 17.902 160.293 29.3159L160.293 29.7445C160.293 40.944 167.956 49.2499 179.959 49.2499ZM180.12 42.3373C173.85 42.3373 169.349 37.5145 169.349 29.691L169.349 29.2623C169.349 21.5459 173.368 16.6695 180.012 16.6695C186.711 16.6695 190.676 21.7602 190.676 29.2087L190.676 29.6374C190.676 37.3538 186.604 42.3373 180.12 42.3373Z" fill="#ffffff" fill-rule="nonzero" opacity="1" stroke="none"/>
<path d="M206.002 48.6605L213.718 48.6605L213.718 21.3851L229.687 48.6605L238.368 48.6605L238.368 10.3464L230.651 10.3464L230.651 35.5854L216.076 10.3464L206.002 10.3464L206.002 48.6605Z" fill="#ffffff" fill-rule="nonzero" opacity="1" stroke="none"/>
<path d="M246.834 48.6605L255.569 48.6605L255.569 10.3464L246.834 10.3464L246.834 48.6605Z" fill="#ffffff" fill-rule="nonzero" opacity="1" stroke="none"/>
<path d="M262.803 36.6572L276.521 36.6572L276.521 30.4947L262.803 30.4947L262.803 36.6572Z" fill="#ffffff" fill-rule="nonzero" opacity="1" stroke="none"/>
<path d="M287.292 48.6605L296.027 48.6605L296.027 6.67867L458.196 6.67867L461.173-0.0731817L276.95-0.0731817L276.95 6.67867L287.292 6.67867L287.292 48.6605Z" fill="#84cc16" fill-rule="nonzero" opacity="1" stroke="none"/>
<path d="M311.781 48.6605L320.408 48.6605L320.408 33.8707L324.159 33.8707L333.322 48.6605L342.539 48.6605L332.412 32.3703C336.913 31.0306 340.289 27.9762 340.289 22.1889L340.289 21.9745C340.289 14.0438 334.555 10.3464 325.499 10.3464L311.781 10.3464L311.781 48.6605ZM320.408 27.9762L320.408 16.991L325.285 16.991C329.464 16.991 331.822 18.3307 331.822 22.2425L331.822 22.4568C331.822 26.1543 329.625 27.9762 325.285 27.9762L320.408 27.9762Z" fill="#ffffff" fill-rule="nonzero" opacity="1" stroke="none"/>
<path d="M344.79 48.6605L352.935 48.6605L355.561 40.1403L369.44 40.1403L372.065 48.6605L381.121 48.6605L368.689 10.3464L357.383 10.3464L344.79 48.6605ZM362.527 17.4197L367.564 33.9778L357.436 33.9778L362.527 17.4197Z" fill="#ffffff" fill-rule="nonzero" opacity="1" stroke="none"/>
<path d="M386.373 48.6605L394.089 48.6605L394.089 21.3851L410.058 48.6605L418.739 48.6605L418.739 10.3464L411.022 10.3464L411.022 35.5854L396.447 10.3464L386.373 10.3464L386.373 48.6605Z" fill="#ffffff" fill-rule="nonzero" opacity="1" stroke="none"/>
<path d="M440.388 49.2499C449.444 49.2499 455.017 43.8377 455.017 37.0323C455.017 29.1015 450.248 26.583 440.977 25.4041C435.083 24.5467 433.85 23.2606 433.85 20.5277C433.85 17.9556 435.779 16.1872 439.584 16.1872C443.388 16.1872 445.425 17.7948 445.961 21.2779L453.945 21.2779C453.248 13.6687 448.211 9.81049 439.584 9.81049C431.117 9.81049 425.651 14.6868 425.651 21.2243C425.651 28.6192 429.67 31.5665 439.477 32.8525C445.103 33.7099 446.711 34.7816 446.711 37.8361C446.711 40.8369 444.192 42.9267 440.388 42.9267C434.708 42.9267 433.261 40.0867 432.886 36.6572L424.58 36.6572C425.062 44.32 429.885 49.2499 440.388 49.2499Z" fill="#ffffff" fill-rule="nonzero" opacity="1" stroke="none"/>
<path d="M183.722 6.67867L186.699-0.0731817L181.096-0.0731817L178.119 6.67867L183.722 6.67867Z" fill="#ffffff" fill-rule="nonzero" opacity="1" stroke="none"/>
<path d="M255.17 6.67867L255.17-0.0731817L190.027-0.0731817L187.05 6.67867L255.17 6.67867Z" fill="#84cc16" fill-rule="nonzero" opacity="1" stroke="none"/>
</g>
</g>
</svg>
